USFL
nRows=259
nColumns=2
inDegrees=yes
endheader
time	tib_ant_r	
3.65927	 50.186871	
3.69254	 50.198382	
3.72581	 50.169502	
3.75907	 50.184556	
3.79234	 50.199783	
3.8256	 50.215021	
3.85887	 50.193577	
3.89214	 50.181491	
3.9254	 50.203254	
3.95867	 50.210423	
3.99194	 50.200061	
4.0252	 50.204375	
4.05847	 50.237925	
4.09173	 50.227497	
4.125	 50.198532	
4.15827	 50.171109	
4.19153	 50.171717	
4.2248	 50.181963	
4.25806	 50.182592	
4.29133	 50.209953	
4.3246	 50.221323	
4.35786	 50.201905	
4.39113	 50.195022	
4.4244	 50.169011	
4.45766	 50.167269	
4.49093	 50.195802	
4.52419	 50.188148	
4.55746	 50.178632	
4.59073	 50.187425	
4.62399	 50.188759	
4.65726	 50.180399	
4.69052	 50.171596	
4.72379	 50.183488	
4.75706	 50.180340	
4.79032	 50.182689	
4.82359	 50.170722	
4.85685	 50.169735	
4.89012	 50.170064	
4.92339	 50.172742	
4.95665	 50.169792	
4.98992	 50.186881	
5.02319	 50.178794	
5.05645	 50.192949	
5.08972	 50.193157	
5.12298	 50.160727	
5.15625	 50.182890	
5.18952	 50.167200	
5.22278	 50.180554	
5.25605	 50.135241	
5.28931	 50.149518	
5.32258	 50.167609	
5.35585	 50.167901	
5.38911	 50.146440	
5.42238	 50.167870	
5.45565	 50.159812	
5.48891	 50.168644	
5.52218	 50.163422	
5.55544	 50.153775	
5.58871	 50.143113	
5.62198	 50.193310	
5.65524	 50.197536	
5.68851	 50.162391	
5.72177	 50.169146	
5.75504	 50.180446	
5.78831	 50.186903	
5.82157	 50.158233	
5.85484	 50.159691	
5.8881	 50.176427	
5.92137	 50.158870	
5.95464	 50.150346	
5.9879	 50.176830	
6.02117	 50.244193	
6.05444	 50.204803	
6.0877	 49.844746	
6.12097	 49.988114	
6.15423	 49.736672	
6.1875	 49.527700	
6.22077	 49.666368	
6.25403	 49.743284	
6.2873	 49.535576	
6.32056	 49.170345	
6.35383	 48.562776	
6.3871	 48.026351	
6.42036	 47.193585	
6.45363	 46.520006	
6.4869	 46.659909	
6.52016	 46.586886	
6.55343	 46.376659	
6.58669	 46.614043	
6.61996	 46.678884	
6.65323	 46.688662	
6.68649	 46.560282	
6.71976	 46.667224	
6.75302	 46.630175	
6.78629	 46.587736	
6.81956	 46.758759	
6.85282	 46.791575	
6.88609	 46.841258	
6.91935	 46.927996	
6.95262	 46.986094	
6.98589	 46.867554	
7.01915	 46.791624	
7.05242	 46.720526	
7.08569	 46.725388	
7.11895	 46.616295	
7.15222	 46.565202	
7.18548	 46.601363	
7.21875	 46.671010	
7.25202	 46.485724	
7.28528	 46.294877	
7.31855	 46.240896	
7.35181	 46.239040	
7.38508	 46.215879	
7.41835	 46.128286	
7.45161	 45.897104	
7.48488	 45.876811	
7.51815	 46.003646	
7.55141	 46.032478	
7.58468	 46.078896	
7.61794	 46.293361	
7.65121	 46.225979	
7.68448	 46.333133	
7.71774	 46.513595	
7.75101	 46.737198	
7.78427	 46.876443	
7.81754	 46.806901	
7.85081	 46.665897	
7.88407	 46.743616	
7.91734	 46.824997	
7.9506	 46.841952	
7.98387	 46.923537	
8.01714	 46.919533	
8.0504	 46.992479	
8.08367	 46.909511	
8.11694	 46.953246	
8.1502	 47.032534	
8.18347	 46.904574	
8.21673	 47.023763	
8.25	 47.044317	
8.28327	 46.946460	
8.31653	 46.881854	
8.3498	 47.028084	
8.38306	 46.979503	
8.41633	 46.903622	
8.4496	 46.934937	
8.48286	 47.029160	
8.51613	 46.813671	
8.5494	 46.857772	
8.58266	 46.926263	
8.61593	 46.709989	
8.64919	 46.838973	
8.68246	 46.899789	
8.71573	 46.842933	
8.74899	 46.899070	
8.78226	 46.840049	
8.81552	 46.734284	
8.84879	 47.041383	
8.88206	 47.039456	
8.91532	 46.858588	
8.94859	 46.943052	
8.98185	 46.886574	
9.01512	 46.892426	
9.04839	 46.934460	
9.08165	 46.858405	
9.11492	 46.870927	
9.14819	 46.975081	
9.18145	 46.956814	
9.21472	 46.842922	
9.24798	 46.939038	
9.28125	 46.906600	
9.31452	 46.834194	
9.34778	 46.925384	
9.38105	 46.891976	
9.41431	 46.829724	
9.44758	 46.909366	
9.48085	 46.823460	
9.51411	 46.922453	
9.54738	 46.921977	
9.58065	 46.906080	
9.61391	 46.852596	
9.64718	 46.876893	
9.68044	 46.871441	
9.71371	 46.868557	
9.74698	 46.903546	
9.78024	 46.799518	
9.81351	 46.855592	
9.84677	 46.903639	
9.88004	 46.812418	
9.91331	 46.884208	
9.94657	 46.860645	
9.97984	 46.807833	
10.0131	 47.008038	
10.0464	 46.864489	
10.0796	 47.021081	
10.1129	 46.867149	
10.1462	 46.925944	
10.1794	 46.879759	
10.2127	 46.974696	
10.246	 46.941208	
10.2792	 46.926921	
10.3125	 46.865333	
10.3458	 47.037928	
10.379	 47.141525	
10.4123	 47.391081	
10.4456	 47.453412	
10.4788	 47.517497	
10.5121	 47.667668	
10.5454	 47.633479	
10.5786	 47.662858	
10.6119	 47.661575	
10.6452	 47.669525	
10.6784	 47.782568	
10.7117	 47.969907	
10.745	 47.999754	
10.7782	 47.981015	
10.8115	 48.122169	
10.8448	 48.458953	
10.878	 48.630278	
10.9113	 48.614377	
10.9446	 48.870748	
10.9778	 49.209258	
11.0111	 49.544655	
11.0444	 49.823247	
11.0776	 50.020095	
11.1109	 50.114459	
11.1442	 50.332633	
11.1774	 50.727276	
11.2107	 50.985068	
11.244	 51.062881	
11.2772	 50.940577	
11.3105	 50.711389	
11.3437	 50.608232	
11.377	 50.567667	
11.4103	 50.821240	
11.4435	 50.824128	
11.4768	 50.730756	
11.5101	 50.604893	
11.5433	 50.510019	
11.5766	 50.424016	
11.6099	 50.432861	
11.6431	 50.729247	
11.6764	 50.899472	
11.7097	 51.156525	
11.7429	 51.327175	
11.7762	 51.497373	
11.8095	 51.447548	
11.8427	 51.534394	
11.876	 51.492611	
11.9093	 51.430695	
11.9425	 51.480546	
11.9758	 51.462305	
12.0091	 51.459135	
12.0423	 51.414929	
12.0756	 51.462626	
12.1089	 51.445685	
12.1421	 51.449692	
12.1754	 51.449680	
12.2087	 51.394684	
12.2419	 51.383052	
